<svg width="163" height="78" viewBox="0 0 163 78" fill="none" xmlns="http://www.w3.org/2000/svg">
<path d="M145.836 57C134.76 57 128.474 51.75 127.875 43.575H134.91C135.733 49.425 140.223 51.375 145.985 51.375C152.346 51.375 155.04 48.6 155.04 45C155.04 40.575 151.673 39.45 144.564 38.025C136.706 36.375 129.597 34.725 129.597 25.875C129.597 18.9751 134.985 14.6251 144.339 14.6251C154.442 14.6251 159.456 19.35 160.354 26.325H153.394C152.795 22.2 149.952 19.875 144.189 19.875C138.726 19.875 136.407 22.425 136.407 25.5C136.407 29.7 140.298 30.525 147.108 31.875C155.115 33.45 162 35.25 162 44.625C162 52.8 155.265 57 145.836 57Z" fill="#0D92FF" style="fill:#0D92FF;fill:color(display-p3 0.0525 0.5736 1.0000);fill-opacity:1;"/>
<path d="M108.252 56.9243C96.1289 56.9243 88.5706 47.4743 88.5706 35.6993C88.5706 23.9993 96.1289 14.5493 108.252 14.5493C120.375 14.5493 127.784 23.9993 127.784 35.6993C127.784 47.4743 120.375 56.9243 108.252 56.9243ZM108.177 51.2243C116.409 51.2243 120.675 44.3993 120.675 35.6993C120.675 26.9993 116.409 20.0993 108.177 20.0993C99.9454 20.0993 95.6799 26.9993 95.6799 35.6993C95.6799 44.3993 99.9454 51.2243 108.177 51.2243Z" fill="#0D92FF" style="fill:#0D92FF;fill:color(display-p3 0.0525 0.5736 1.0000);fill-opacity:1;"/>
<path d="M66.9655 56.9999C56.1145 56.9999 49.2297 48.7499 49.2297 35.7749C49.2297 22.5 56.8629 14.55 66.8158 14.55C72.5033 14.55 76.9933 17.4 79.5377 21.675H79.6874C79.5377 19.875 79.4629 16.95 79.4629 14.25V0H86.4225V55.7999H79.5377V50.0249H79.388C76.8437 54.3749 72.5781 56.9999 66.9655 56.9999ZM67.4893 51.2249C76.0953 51.2249 79.837 44.6999 79.837 35.8499C79.837 26.775 75.5715 20.4 67.4893 20.4C60.0807 20.4 56.339 27 56.339 35.8499C56.339 44.6999 60.0807 51.2249 67.4893 51.2249Z" fill="#0D92FF" style="fill:#0D92FF;fill:color(display-p3 0.0525 0.5736 1.0000);fill-opacity:1;"/>
<path d="M39.9731 8.09999V0H47.232V8.09999H39.9731ZM40.1227 55.7999V15.525H47.0823V55.7999H40.1227Z" fill="#0D92FF" style="fill:#0D92FF;fill:color(display-p3 0.0525 0.5736 1.0000);fill-opacity:1;"/>
<path d="M19.6066 56.9243C7.25894 56.9243 0 47.4743 0 35.6993C0 23.9993 7.70795 14.5493 19.2325 14.5493C25.2192 14.5493 29.859 16.8743 33.002 20.7743C36.2947 24.7493 37.9411 30.5243 37.9411 37.3493H9.37894C8.15063 37.3493 7.16707 38.3946 7.37119 39.6085C8.50371 46.3435 12.662 51.2243 19.6815 51.2243C25.2192 51.2243 29.0358 48.5993 30.308 44.3243H37.1179C35.3219 51.8243 28.8861 56.9243 19.6066 56.9243ZM19.2325 19.9493C13.685 19.9493 10.148 23.0155 8.38772 27.6415C7.47671 30.0357 9.51927 32.3243 12.0759 32.3243H26.0745C28.5008 32.3243 30.5132 30.2551 29.8388 27.9193C28.3799 22.8669 24.7453 19.9493 19.2325 19.9493Z" fill="#0D92FF" style="fill:#0D92FF;fill:color(display-p3 0.0525 0.5736 1.0000);fill-opacity:1;"/>
<path d="M1.22551 76V66.7578H4.18352C4.63209 66.7578 5.05315 66.8086 5.4467 66.9102C5.84026 67.0075 6.18091 67.1577 6.46867 67.3608C6.75643 67.564 6.98072 67.8242 7.14153 68.1416C7.30656 68.4548 7.38908 68.8271 7.38908 69.2588C7.38485 69.5212 7.3383 69.7666 7.24944 69.9951C7.1648 70.2194 7.04208 70.4183 6.88127 70.5918C6.76701 70.7188 6.63794 70.8309 6.49406 70.9282C6.35442 71.0213 6.19149 71.106 6.00529 71.1821V71.1948C6.28036 71.2668 6.51522 71.3726 6.70988 71.5122C6.90455 71.6476 7.06747 71.8021 7.19865 71.9756C7.33407 72.1618 7.43563 72.3691 7.50334 72.5977C7.57528 72.8219 7.61125 73.0589 7.61125 73.3086C7.61548 73.7487 7.5372 74.1359 7.37639 74.4702C7.21558 74.8045 6.99341 75.0838 6.70988 75.3081C6.42636 75.5366 6.08781 75.7101 5.69426 75.8286C5.30494 75.9429 4.88176 76 4.42473 76H1.22551ZM2.76164 71.8232V74.7432H4.43742C4.67863 74.7432 4.89869 74.7093 5.09758 74.6416C5.29647 74.5739 5.46574 74.4808 5.60539 74.3623C5.75774 74.2396 5.87411 74.0894 5.95451 73.9116C6.03915 73.7297 6.08147 73.5286 6.08147 73.3086C6.08147 73.0758 6.04761 72.8706 5.9799 72.6929C5.9122 72.5109 5.81063 72.3564 5.67522 72.2295C5.5398 72.1025 5.37476 72.0052 5.1801 71.9375C4.98544 71.8656 4.76327 71.8275 4.5136 71.8232H2.76164ZM2.76164 70.6616H4.21526C4.46493 70.6574 4.69345 70.6235 4.9008 70.5601C5.11239 70.4966 5.29013 70.4035 5.43401 70.2808C5.56519 70.1707 5.66887 70.0374 5.74504 69.8809C5.82121 69.7243 5.8593 69.5444 5.8593 69.3413C5.8593 69.1255 5.82333 68.9393 5.75139 68.7827C5.68368 68.6219 5.58635 68.4907 5.4594 68.3892C5.31552 68.2622 5.13567 68.1712 4.91985 68.1162C4.70403 68.057 4.46493 68.0252 4.20256 68.021H2.76164V70.6616ZM8.02461 72.5024C8.02461 72.0031 8.09655 71.5418 8.24043 71.1187C8.38431 70.6912 8.59378 70.321 8.86885 70.0078C9.13968 69.6947 9.47188 69.4492 9.86543 69.2715C10.259 69.0938 10.7076 69.0049 11.2111 69.0049C11.7147 69.0049 12.1633 69.0938 12.5568 69.2715C12.9546 69.4492 13.2911 69.6947 13.5661 70.0078C13.8369 70.321 14.0443 70.6912 14.1882 71.1187C14.3321 71.5418 14.404 72.0031 14.404 72.5024V72.6357C14.404 73.1393 14.3321 73.6027 14.1882 74.0259C14.0443 74.4491 13.8369 74.8172 13.5661 75.1304C13.2953 75.4435 12.961 75.689 12.5632 75.8667C12.1696 76.0444 11.7232 76.1333 11.2238 76.1333C10.7202 76.1333 10.2696 76.0444 9.87178 75.8667C9.47399 75.689 9.13968 75.4435 8.86885 75.1304C8.59378 74.8172 8.38431 74.4491 8.24043 74.0259C8.09655 73.6027 8.02461 73.1393 8.02461 72.6357V72.5024ZM9.5417 72.6357C9.5417 72.9447 9.57344 73.2367 9.63692 73.5117C9.70462 73.7868 9.8083 74.028 9.94795 74.2354C10.0834 74.4427 10.2569 74.6077 10.4685 74.7305C10.68 74.849 10.9318 74.9082 11.2238 74.9082C11.5074 74.9082 11.7549 74.849 11.9665 74.7305C12.1781 74.6077 12.3516 74.4427 12.487 74.2354C12.6224 74.028 12.7219 73.7868 12.7854 73.5117C12.8531 73.2367 12.8869 72.9447 12.8869 72.6357V72.5024C12.8869 72.202 12.8531 71.9142 12.7854 71.6392C12.7176 71.3641 12.6182 71.1229 12.487 70.9155C12.3474 70.7082 12.1717 70.5431 11.9602 70.4204C11.7528 70.2977 11.5031 70.2363 11.2111 70.2363C10.9234 70.2363 10.6737 70.2977 10.4621 70.4204C10.2548 70.5431 10.0834 70.7082 9.94795 70.9155C9.8083 71.1229 9.70462 71.3641 9.63692 71.6392C9.57344 71.9142 9.5417 72.202 9.5417 72.5024V72.6357ZM20.0796 69.0049C20.325 69.0049 20.562 69.0218 20.7905 69.0557C21.0233 69.0895 21.2052 69.1297 21.3364 69.1763L21.1206 70.6743C20.8878 70.6235 20.6572 70.5854 20.4287 70.5601C20.2044 70.5347 19.9801 70.522 19.7558 70.522C19.5019 70.522 19.2734 70.5474 19.0703 70.5981C18.8672 70.6489 18.6873 70.7272 18.5307 70.833C18.3615 70.9346 18.2176 71.0636 18.0991 71.2202C17.9806 71.3768 17.8812 71.5566 17.8008 71.7598V76H16.2837V69.1318H17.7055L17.769 70.084L17.7754 70.2427C18.0547 69.8576 18.389 69.555 18.7783 69.335C19.1719 69.1149 19.6056 69.0049 20.0796 69.0049ZM22.3591 76V69.1318H23.7302L23.8255 70.1094C23.9185 69.9782 24.0201 69.8576 24.1301 69.7476C24.2444 69.6333 24.365 69.5317 24.492 69.4429C24.6951 69.3032 24.9172 69.1953 25.1585 69.1191C25.3997 69.043 25.6536 69.0049 25.9202 69.0049C26.2714 69.0049 26.593 69.0557 26.885 69.1572C27.177 69.2588 27.4267 69.4196 27.634 69.6396C27.8414 69.8597 28.0022 70.1411 28.1165 70.4839C28.2307 70.8224 28.2879 71.2329 28.2879 71.7153V76H26.7708V71.7407C26.7708 71.4572 26.739 71.2202 26.6755 71.0298C26.6121 70.8394 26.519 70.687 26.3963 70.5728C26.2735 70.4585 26.1254 70.3781 25.9519 70.3315C25.7784 70.2808 25.5795 70.2554 25.3552 70.2554C25.169 70.2554 24.9955 70.2808 24.8347 70.3315C24.6739 70.3781 24.5279 70.4458 24.3967 70.5347C24.2952 70.6024 24.2 70.6849 24.1111 70.7822C24.0222 70.8796 23.9439 70.9854 23.8762 71.0996V76H22.3591ZM41.9368 72.0645H38.0267V76H36.4905V66.7578H42.4954V68.021H38.0267V70.8076H41.9368V72.0645ZM48.19 69.0049C48.4355 69.0049 48.6725 69.0218 48.901 69.0557C49.1337 69.0895 49.3157 69.1297 49.4469 69.1763L49.2311 70.6743C48.9983 70.6235 48.7677 70.5854 48.5392 70.5601C48.3149 70.5347 48.0906 70.522 47.8663 70.522C47.6124 70.522 47.3839 70.5474 47.1808 70.5981C46.9776 70.6489 46.7978 70.7272 46.6412 70.833C46.4719 70.9346 46.3281 71.0636 46.2096 71.2202C46.0911 71.3768 45.9916 71.5566 45.9112 71.7598V76H44.3941V69.1318H45.816L45.8795 70.084L45.8858 70.2427C46.1651 69.8576 46.4994 69.555 46.8888 69.335C47.2823 69.1149 47.7161 69.0049 48.19 69.0049ZM50.1903 72.5024C50.1903 72.0031 50.2623 71.5418 50.4061 71.1187C50.55 70.6912 50.7595 70.321 51.0346 70.0078C51.3054 69.6947 51.6376 69.4492 52.0311 69.2715C52.4247 69.0938 52.8733 69.0049 53.3768 69.0049C53.8804 69.0049 54.329 69.0938 54.7225 69.2715C55.1203 69.4492 55.4568 69.6947 55.7318 70.0078C56.0027 70.321 56.21 70.6912 56.3539 71.1187C56.4978 71.5418 56.5697 72.0031 56.5697 72.5024V72.6357C56.5697 73.1393 56.4978 73.6027 56.3539 74.0259C56.21 74.4491 56.0027 74.8172 55.7318 75.1304C55.461 75.4435 55.1267 75.689 54.7289 75.8667C54.3353 76.0444 53.8889 76.1333 53.3895 76.1333C52.886 76.1333 52.4353 76.0444 52.0375 75.8667C51.6397 75.689 51.3054 75.4435 51.0346 75.1304C50.7595 74.8172 50.55 74.4491 50.4061 74.0259C50.2623 73.6027 50.1903 73.1393 50.1903 72.6357V72.5024ZM51.7074 72.6357C51.7074 72.9447 51.7391 73.2367 51.8026 73.5117C51.8703 73.7868 51.974 74.028 52.1137 74.2354C52.2491 74.4427 52.4226 74.6077 52.6342 74.7305C52.8458 74.849 53.0975 74.9082 53.3895 74.9082C53.6731 74.9082 53.9206 74.849 54.1322 74.7305C54.3438 74.6077 54.5173 74.4427 54.6527 74.2354C54.7881 74.028 54.8876 73.7868 54.9511 73.5117C55.0188 73.2367 55.0526 72.9447 55.0526 72.6357V72.5024C55.0526 72.202 55.0188 71.9142 54.9511 71.6392C54.8833 71.3641 54.7839 71.1229 54.6527 70.9155C54.5131 70.7082 54.3375 70.5431 54.1259 70.4204C53.9185 70.2977 53.6688 70.2363 53.3768 70.2363C53.0891 70.2363 52.8394 70.2977 52.6278 70.4204C52.4205 70.5431 52.2491 70.7082 52.1137 70.9155C51.974 71.1229 51.8703 71.3641 51.8026 71.6392C51.7391 71.9142 51.7074 72.202 51.7074 72.5024V72.6357ZM58.3605 69.1318L58.4049 69.8872C58.5361 69.6121 58.716 69.3963 58.9445 69.2397C59.1772 69.0832 59.4565 69.0049 59.7824 69.0049C59.9517 69.0049 60.104 69.0239 60.2394 69.062C60.3748 69.1001 60.4912 69.1593 60.5885 69.2397C60.6647 69.299 60.7324 69.3709 60.7917 69.4556C60.8509 69.536 60.9017 69.6291 60.944 69.7349C61.0033 69.6375 61.071 69.5465 61.1471 69.4619C61.2233 69.3773 61.3058 69.3053 61.3947 69.2461C61.5089 69.1699 61.6359 69.1107 61.7756 69.0684C61.9194 69.026 62.076 69.0049 62.2453 69.0049C62.4653 69.0049 62.6663 69.043 62.8483 69.1191C63.0345 69.1911 63.1953 69.3032 63.3307 69.4556C63.4661 69.6164 63.5698 69.8258 63.6418 70.084C63.7179 70.3379 63.756 70.6447 63.756 71.0044V76H62.3595V70.9917C62.3595 70.8563 62.3447 70.742 62.3151 70.6489C62.2855 70.5516 62.2432 70.4733 62.1881 70.4141C62.1331 70.359 62.0654 70.3188 61.985 70.2935C61.9089 70.2681 61.8242 70.2554 61.7311 70.2554C61.6338 70.2554 61.5492 70.2681 61.4772 70.2935C61.4053 70.3188 61.3418 70.3548 61.2868 70.4014C61.236 70.4437 61.1937 70.4945 61.1598 70.5537C61.126 70.6087 61.1006 70.6722 61.0837 70.7441C61.0837 70.7611 61.0837 70.7822 61.0837 70.8076C61.0837 70.8288 61.0837 70.8605 61.0837 70.9028V76H59.7126V70.9854C59.7126 70.8499 59.6978 70.7357 59.6681 70.6426C59.6427 70.5452 59.6025 70.4691 59.5475 70.4141C59.4925 70.359 59.4269 70.3188 59.3507 70.2935C59.2788 70.2681 59.1963 70.2554 59.1032 70.2554C59.0016 70.2554 58.9106 70.2702 58.8302 70.2998C58.7541 70.3252 58.6885 70.3654 58.6335 70.4204C58.5911 70.4585 58.5531 70.5029 58.5192 70.5537C58.4896 70.6045 58.4621 70.6616 58.4367 70.7251V76H57.0402V69.1318H58.3605ZM72.0666 76L70.8606 66.7578H72.2761L72.9109 72.4326L72.9553 72.7944L73.0188 72.4136L73.9074 66.7578H75.0754L75.9958 72.439L76.0593 72.8198L76.1037 72.4326L76.7448 66.7578H78.1667L76.948 76H75.507L74.5676 70.3442L74.5041 69.9062L74.4343 70.3442L73.5075 76H72.0666ZM80.0972 70.1094C80.186 69.974 80.2855 69.8491 80.3955 69.7349C80.5055 69.6206 80.6219 69.5212 80.7446 69.4365C80.9351 69.2969 81.1445 69.1911 81.373 69.1191C81.6058 69.043 81.8512 69.0049 82.1094 69.0049C82.4691 69.0049 82.797 69.0578 83.0933 69.1636C83.3937 69.2694 83.6497 69.4344 83.8613 69.6587C84.0729 69.883 84.2358 70.1707 84.3501 70.522C84.4686 70.869 84.5278 71.2858 84.5278 71.7725V76H83.0107V71.7598C83.0107 71.5059 82.979 71.2837 82.9155 71.0933C82.8563 70.9028 82.7674 70.7484 82.6489 70.6299C82.5262 70.5029 82.376 70.4098 82.1982 70.3506C82.0247 70.2871 81.8237 70.2554 81.5952 70.2554C81.4175 70.2554 81.2482 70.2765 81.0874 70.3188C80.9308 70.3612 80.7869 70.4225 80.6558 70.5029C80.5457 70.5664 80.4421 70.6426 80.3447 70.7314C80.2516 70.8203 80.1691 70.9198 80.0972 71.0298V76H78.5801V66.25H80.0972V70.1094ZM89.9939 76C89.9474 75.9154 89.9093 75.8138 89.8797 75.6953C89.8543 75.5726 89.831 75.4456 89.8098 75.3145C89.7041 75.4245 89.5834 75.5303 89.448 75.6318C89.3168 75.7292 89.1687 75.8138 89.0037 75.8857C88.8387 75.9619 88.6609 76.0212 88.4705 76.0635C88.2801 76.1058 88.0748 76.127 87.8548 76.127C87.4993 76.127 87.1735 76.0762 86.8772 75.9746C86.5852 75.8688 86.3356 75.7249 86.1282 75.543C85.9166 75.3652 85.7516 75.1515 85.6331 74.9019C85.5188 74.6479 85.4617 74.375 85.4617 74.083C85.4617 73.7064 85.5358 73.3742 85.6839 73.0864C85.8362 72.7944 86.0563 72.5532 86.344 72.3628C86.6106 72.1851 86.9386 72.0496 87.3279 71.9565C87.7215 71.8634 88.1658 71.8169 88.6609 71.8169H89.7654V71.3535C89.7654 71.1758 89.7337 71.015 89.6702 70.8711C89.611 70.7272 89.5242 70.6024 89.4099 70.4966C89.2872 70.3908 89.137 70.3104 88.9593 70.2554C88.7858 70.1961 88.5847 70.1665 88.3562 70.1665C88.1489 70.1665 87.9669 70.1919 87.8103 70.2427C87.658 70.2935 87.531 70.3633 87.4295 70.4521C87.3279 70.5326 87.2517 70.632 87.201 70.7505C87.1544 70.8647 87.1311 70.9875 87.1311 71.1187H85.6077C85.6119 70.8436 85.6775 70.5791 85.8045 70.3252C85.9314 70.0713 86.1176 69.847 86.3631 69.6523C86.6 69.4535 86.892 69.2969 87.239 69.1826C87.5903 69.0641 87.9902 69.0049 88.4388 69.0049C88.8408 69.0049 89.2153 69.0557 89.5623 69.1572C89.9135 69.2546 90.2161 69.4006 90.47 69.5952C90.7239 69.7899 90.9228 70.0374 91.0667 70.3379C91.2106 70.6341 91.2825 70.9769 91.2825 71.3662V74.4194C91.2825 74.7284 91.3037 75.0076 91.346 75.2573C91.3925 75.5028 91.4581 75.7144 91.5428 75.8921V76H89.9939ZM88.1468 74.9082C88.3457 74.9082 88.5297 74.8828 88.699 74.832C88.8725 74.7812 89.0291 74.7157 89.1687 74.6353C89.3084 74.5549 89.429 74.4639 89.5305 74.3623C89.6321 74.2607 89.7104 74.1549 89.7654 74.0449V72.7754H88.7879C88.4578 72.7754 88.1721 72.8071 87.9309 72.8706C87.6897 72.9299 87.4972 73.0166 87.3533 73.1309C87.2263 73.2282 87.1311 73.3446 87.0677 73.48C87.0084 73.6154 86.9788 73.7677 86.9788 73.937C86.9788 74.0767 87.0042 74.2078 87.055 74.3306C87.1057 74.4491 87.1798 74.5506 87.2771 74.6353C87.3745 74.7199 87.4951 74.7876 87.6389 74.8384C87.7828 74.8849 87.9521 74.9082 88.1468 74.9082ZM95.6822 67.4561V69.1318H98.2657V70.2681H95.6822V73.5498C95.6822 73.8037 95.7118 74.0174 95.7711 74.1909C95.8345 74.3602 95.9213 74.4935 96.0313 74.5908C96.1413 74.6924 96.2725 74.7643 96.4249 74.8066C96.5772 74.849 96.7444 74.8701 96.9263 74.8701C97.0575 74.8701 97.1929 74.8638 97.3326 74.8511C97.4722 74.8384 97.6076 74.8215 97.7388 74.8003C97.8658 74.7834 97.9843 74.7643 98.0943 74.7432C98.2086 74.7178 98.3038 74.6966 98.3799 74.6797L98.545 75.7271C98.435 75.7948 98.3017 75.854 98.1451 75.9048C97.9927 75.9513 97.8277 75.9915 97.65 76.0254C97.4722 76.0592 97.286 76.0846 97.0914 76.1016C96.9009 76.1227 96.7105 76.1333 96.5201 76.1333C96.1731 76.1333 95.8536 76.0868 95.5616 75.9937C95.2738 75.8963 95.0263 75.7461 94.8189 75.543C94.6116 75.3441 94.4486 75.0881 94.3301 74.7749C94.2159 74.4618 94.1588 74.0851 94.1588 73.645V70.2681H92.4957V69.1318H94.1588V67.4561H95.6822ZM109.63 71.1758L111.566 66.7578H113.267L110.372 72.6992L110.359 76H108.868L108.861 72.6548L105.992 66.7578H107.687L109.63 71.1758ZM113.439 72.5024C113.439 72.0031 113.511 71.5418 113.655 71.1187C113.799 70.6912 114.008 70.321 114.283 70.0078C114.554 69.6947 114.886 69.4492 115.28 69.2715C115.673 69.0938 116.122 69.0049 116.625 69.0049C117.129 69.0049 117.578 69.0938 117.971 69.2715C118.369 69.4492 118.705 69.6947 118.98 70.0078C119.251 70.321 119.459 70.6912 119.602 71.1187C119.746 71.5418 119.818 72.0031 119.818 72.5024V72.6357C119.818 73.1393 119.746 73.6027 119.602 74.0259C119.459 74.4491 119.251 74.8172 118.98 75.1304C118.71 75.4435 118.375 75.689 117.977 75.8667C117.584 76.0444 117.137 76.1333 116.638 76.1333C116.135 76.1333 115.684 76.0444 115.286 75.8667C114.888 75.689 114.554 75.4435 114.283 75.1304C114.008 74.8172 113.799 74.4491 113.655 74.0259C113.511 73.6027 113.439 73.1393 113.439 72.6357V72.5024ZM114.956 72.6357C114.956 72.9447 114.988 73.2367 115.051 73.5117C115.119 73.7868 115.223 74.028 115.362 74.2354C115.498 74.4427 115.671 74.6077 115.883 74.7305C116.094 74.849 116.346 74.9082 116.638 74.9082C116.922 74.9082 117.169 74.849 117.381 74.7305C117.592 74.6077 117.766 74.4427 117.901 74.2354C118.037 74.028 118.136 73.7868 118.2 73.5117C118.267 73.2367 118.301 72.9447 118.301 72.6357V72.5024C118.301 72.202 118.267 71.9142 118.2 71.6392C118.132 71.3641 118.032 71.1229 117.901 70.9155C117.762 70.7082 117.586 70.5431 117.374 70.4204C117.167 70.2977 116.917 70.2363 116.625 70.2363C116.338 70.2363 116.088 70.2977 115.876 70.4204C115.669 70.5431 115.498 70.7082 115.362 70.9155C115.223 71.1229 115.119 71.3641 115.051 71.6392C114.988 71.9142 114.956 72.202 114.956 72.5024V72.6357ZM125.246 76L125.157 75.0415C124.925 75.3843 124.641 75.653 124.307 75.8477C123.973 76.0381 123.598 76.1333 123.183 76.1333C122.828 76.1333 122.502 76.0783 122.206 75.9683C121.914 75.854 121.662 75.6784 121.45 75.4414C121.243 75.2044 121.082 74.9019 120.968 74.5337C120.854 74.1613 120.797 73.717 120.797 73.2007V69.1318H122.314V73.2134C122.314 73.5308 122.337 73.7974 122.383 74.0132C122.43 74.2248 122.504 74.394 122.606 74.521C122.707 74.6522 122.836 74.7453 122.993 74.8003C123.149 74.8553 123.334 74.8828 123.545 74.8828C123.765 74.8828 123.962 74.8595 124.135 74.813C124.309 74.7622 124.461 74.6945 124.592 74.6099C124.702 74.5337 124.8 74.4448 124.884 74.3433C124.969 74.2375 125.041 74.1211 125.1 73.9941V69.1318H126.624V76H125.246ZM134.801 76V69.1318H136.172L136.267 70.1094C136.36 69.9782 136.462 69.8576 136.572 69.7476C136.686 69.6333 136.807 69.5317 136.934 69.4429C137.137 69.3032 137.359 69.1953 137.6 69.1191C137.842 69.043 138.095 69.0049 138.362 69.0049C138.713 69.0049 139.035 69.0557 139.327 69.1572C139.619 69.2588 139.869 69.4196 140.076 69.6396C140.283 69.8597 140.444 70.1411 140.558 70.4839C140.673 70.8224 140.73 71.2329 140.73 71.7153V76H139.213V71.7407C139.213 71.4572 139.181 71.2202 139.117 71.0298C139.054 70.8394 138.961 70.687 138.838 70.5728C138.715 70.4585 138.567 70.3781 138.394 70.3315C138.22 70.2808 138.021 70.2554 137.797 70.2554C137.611 70.2554 137.437 70.2808 137.277 70.3315C137.116 70.3781 136.97 70.4458 136.839 70.5347C136.737 70.6024 136.642 70.6849 136.553 70.7822C136.464 70.8796 136.386 70.9854 136.318 71.0996V76H134.801ZM145.034 76.127C144.526 76.127 144.061 76.0423 143.638 75.873C143.219 75.7038 142.859 75.4689 142.559 75.1685C142.258 74.8722 142.025 74.5231 141.86 74.1211C141.7 73.7148 141.619 73.2769 141.619 72.8071V72.5469C141.619 72.0094 141.704 71.5228 141.873 71.0869C142.042 70.651 142.275 70.2786 142.571 69.9697C142.868 69.6608 143.21 69.4238 143.6 69.2588C143.993 69.0895 144.412 69.0049 144.856 69.0049C145.352 69.0049 145.79 69.0895 146.17 69.2588C146.551 69.4238 146.871 69.6545 147.129 69.9507C147.387 70.2511 147.582 70.6087 147.713 71.0234C147.844 71.4382 147.91 71.891 147.91 72.3818V73.0356H143.149V73.0674C143.195 73.3678 143.267 73.6196 143.365 73.8228C143.462 74.0259 143.595 74.2078 143.765 74.3687C143.934 74.5379 144.133 74.6691 144.361 74.7622C144.594 74.8553 144.848 74.9019 145.123 74.9019C145.5 74.9019 145.851 74.8299 146.177 74.686C146.503 74.5379 146.771 74.3285 146.983 74.0576L147.795 74.8447C147.567 75.1748 147.216 75.471 146.742 75.7334C146.272 75.9958 145.703 76.127 145.034 76.127ZM144.85 70.2363C144.634 70.2363 144.433 70.2765 144.247 70.3569C144.065 70.4331 143.902 70.5431 143.758 70.687C143.614 70.8351 143.494 71.0129 143.396 71.2202C143.299 71.4276 143.227 71.6624 143.181 71.9248H146.412V71.8232C146.412 71.6243 146.376 71.4276 146.304 71.2329C146.232 71.034 146.13 70.8605 145.999 70.7124C145.872 70.5685 145.711 70.4543 145.517 70.3696C145.326 70.2808 145.104 70.2363 144.85 70.2363ZM152.062 76.127C151.554 76.127 151.089 76.0423 150.665 75.873C150.246 75.7038 149.887 75.4689 149.586 75.1685C149.286 74.8722 149.053 74.5231 148.888 74.1211C148.727 73.7148 148.647 73.2769 148.647 72.8071V72.5469C148.647 72.0094 148.731 71.5228 148.901 71.0869C149.07 70.651 149.303 70.2786 149.599 69.9697C149.895 69.6608 150.238 69.4238 150.627 69.2588C151.021 69.0895 151.44 69.0049 151.884 69.0049C152.379 69.0049 152.817 69.0895 153.198 69.2588C153.579 69.4238 153.898 69.6545 154.157 69.9507C154.415 70.2511 154.609 70.6087 154.741 71.0234C154.872 71.4382 154.937 71.891 154.937 72.3818V73.0356H150.177V73.0674C150.223 73.3678 150.295 73.6196 150.392 73.8228C150.49 74.0259 150.623 74.2078 150.792 74.3687C150.962 74.5379 151.16 74.6691 151.389 74.7622C151.622 74.8553 151.876 74.9019 152.151 74.9019C152.527 74.9019 152.879 74.8299 153.204 74.686C153.53 74.5379 153.799 74.3285 154.011 74.0576L154.823 74.8447C154.595 75.1748 154.243 75.471 153.769 75.7334C153.3 75.9958 152.73 76.127 152.062 76.127ZM151.878 70.2363C151.662 70.2363 151.461 70.2765 151.275 70.3569C151.093 70.4331 150.93 70.5431 150.786 70.687C150.642 70.8351 150.521 71.0129 150.424 71.2202C150.327 71.4276 150.255 71.6624 150.208 71.9248H153.439V71.8232C153.439 71.6243 153.403 71.4276 153.331 71.2329C153.259 71.034 153.158 70.8605 153.027 70.7124C152.9 70.5685 152.739 70.4543 152.544 70.3696C152.354 70.2808 152.132 70.2363 151.878 70.2363ZM155.681 72.5151C155.681 71.9946 155.742 71.5207 155.865 71.0933C155.992 70.6616 156.174 70.2913 156.411 69.9824C156.643 69.6735 156.927 69.4344 157.261 69.2651C157.6 69.0916 157.981 69.0049 158.404 69.0049C158.785 69.0049 159.117 69.0726 159.4 69.208C159.688 69.3392 159.942 69.5275 160.162 69.7729V66.25H161.679V76H160.302L160.232 75.2827C160.012 75.5535 159.75 75.763 159.445 75.9111C159.14 76.055 158.789 76.127 158.391 76.127C157.972 76.127 157.596 76.0402 157.261 75.8667C156.927 75.689 156.643 75.4435 156.411 75.1304C156.178 74.8215 155.998 74.4554 155.871 74.0322C155.744 73.6048 155.681 73.1436 155.681 72.6484V72.5151ZM157.198 72.6484C157.198 72.9531 157.227 73.2409 157.287 73.5117C157.346 73.7826 157.439 74.0174 157.566 74.2163C157.693 74.4237 157.856 74.5866 158.055 74.7051C158.254 74.8193 158.493 74.8765 158.772 74.8765C159.115 74.8765 159.398 74.8024 159.623 74.6543C159.847 74.502 160.027 74.2967 160.162 74.0386V71.0869C160.027 70.833 159.847 70.632 159.623 70.4839C159.403 70.3315 159.123 70.2554 158.785 70.2554C158.501 70.2554 158.258 70.3146 158.055 70.4331C157.856 70.5516 157.695 70.7145 157.572 70.9219C157.441 71.1292 157.346 71.3704 157.287 71.6455C157.227 71.9163 157.198 72.2062 157.198 72.5151V72.6484Z" fill="#0D92FF" style="fill:#0D92FF;fill:color(display-p3 0.0525 0.5736 1.0000);fill-opacity:1;"/>
</svg>
